# xmcd CD database file
#
# Track frame offsets:
#	150
#	16127
#	35592
#	49360
#	57155
#	81117
#	92712
#	114502
#	127247
#	132630
#	148622
#	170560
#	183650
#	190345
#	213805
#	235920
#	250247
#	274932
#	295432
#
# Disc length: 4376 seconds
#
# Revision: 0
# Processed by: cddbd v1.5.1PL2 Copyright (c) Steve Scherf et al.
# Submitted via: CDex 1.51
#
DISCID=28111613
DTITLE=Various Artist - クラシック・オン・テレビ・コマーシャル 最新Tv・Cmテーマ19曲
DYEAR=2001
DGENRE=Jazz
TTITLE0=「四季」より「春」(ヴィヴァルディ)
TTITLE1=シェエラザード(リムスキー=コルサフ)
TTITLE2=ワルツ第7番作品64の2(ショパン)
TTITLE3=くるみ割り人形(チャイコフスキー)
TTITLE4=結婚行進曲(メンデルスゾーン)
TTITLE5=魔笛(モーツァルト)
TTITLE6=ノクターン第2番 作品9の2(ショパン)
TTITLE7=ラバーズ・コンチェルト(J.S.バッハ)
TTITLE8=春の祭典(ストラヴィンスキー)
TTITLE9=交響曲第1番「巨人」(マーラー)
TTITLE10=惑星(ホルスト)
TTITLE11=シルヴィアに(シューベルト)
TTITLE12=タランテラ(ブルグミュラー)
TTITLE13=交響曲第4番(マーラー)
TTITLE14=愛の妙薬(トニゼッティ)
TTITLE15=2つのトランペットのための協奏曲(ヴィヴァルディ)
TTITLE16=タンホイザー:夕星の歌(ワーグナー)
TTITLE17=ディヴェルティメント第17番 K.344(モーツァルト)
TTITLE18=アイーダ:凱旋の合唱(ヴェルディ)
EXTD=YEAR: 2001
EXTT0=
EXTT1=
EXTT2=
EXTT3=
EXTT4=
EXTT5=
EXTT6=
EXTT7=
EXTT8=
EXTT9=
EXTT10=
EXTT11=
EXTT12=
EXTT13=
EXTT14=
EXTT15=
EXTT16=
EXTT17=
EXTT18=
PLAYORDER=
